<svg xmlns="http://www.w3.org/2000/svg" width="6.5in" height="3.45in" viewBox="0 0 1040 552" role="img" aria-labelledby="svg-title svg-desc">
<title id="svg-title">A multi-hop procurement bridge query through structured understanding and deterministic execution</title>
<desc id="svg-desc">A shared input question is converted into a typed intent. A valid intent follows a deterministic compiler while a conditional graph planner is bypassed. Grounded execution finds twenty-one source records, derives sixteen buyer values, binds them into a target query, and counts one thousand nine hundred forty records before release checks.</desc>
<defs>
  <marker id="arrow" markerWidth="9" markerHeight="9" refX="8" refY="4" orient="auto"><path d="M0,0 L8,4 L0,8 z" fill="#222222"/></marker>
  <marker id="gray-arrow" markerWidth="9" markerHeight="9" refX="8" refY="4" orient="auto"><path d="M0,0 L8,4 L0,8 z" fill="#888888"/></marker>
  <style>
    text { font-family: "DejaVu Sans", Arial, sans-serif; fill: #181818; }
    .panel { font-size: 22px; font-weight: 700; }
    .heading { font-size: 20px; font-weight: 700; }
    .body { font-size: 18px; }
    .small { font-size: 17px; fill: #444444; }
    .tiny { font-size: 17px; fill: #666666; }
    .mono { font-family: "DejaVu Sans Mono", monospace; font-size: 17px; }
    .input { fill: #f2f2f2; stroke: #777777; stroke-width: 1.2; }
    .artifact { fill: #ffffff; stroke: #333333; stroke-width: 1.25; }
    .learned { fill: #edf4fb; stroke: #2f6fa3; stroke-width: 1.4; }
    .deterministic { fill: #eef8f6; stroke: #177e75; stroke-width: 1.4; }
    .bypassed { fill: #fafafa; stroke: #888888; stroke-width: 1.1; stroke-dasharray: 6 5; }
    .check { fill: #ffffff; stroke: #2e7d32; stroke-width: 1.4; }
    .warning { fill: #fff7df; stroke: #b07818; stroke-width: 1.2; }
    .rule { stroke: #666666; stroke-width: 1.3; stroke-dasharray: 7 6; }
    .grid { stroke: #777777; stroke-width: 0.8; }
    .arrow { fill: none; stroke: #222222; stroke-width: 1.8; }
    .branch { fill: none; stroke: #888888; stroke-width: 1.25; stroke-dasharray: 6 5; }
    .blue { fill: #2f6fa3; font-weight: 700; }
    .teal { fill: #177e75; font-weight: 700; }
    .green { fill: #2e7d32; font-weight: 700; }
    .amber { fill: #9a6410; font-weight: 700; }
    .gray { fill: #777777; }
  </style>
</defs>
<rect width="1040" height="552" fill="#ffffff"/>
<rect x="14" y="18" width="232" height="516" rx="7" class="input"/><text x="29" y="48" class="heading" text-anchor="start">INPUT PROMPT</text><rect x="29" y="67" width="202" height="145" rx="0" class="artifact"/><text x="43" y="96" class="body" text-anchor="start"><tspan x="43" dy="0">[exact bridge question]</tspan><tspan x="43" dy="27">[source · bridge · target]</tspan></text><rect x="29" y="242" width="202" height="176" rx="0" class="artifact"/><text x="43" y="270" class="small" text-anchor="start">[relation sketch]</text><text x="43" y="394" class="small" text-anchor="start">[shared record schema]</text><text x="266" y="38" class="panel" text-anchor="start">(a) Question → executable graph</text><rect x="273" y="61" width="205" height="128" rx="0" class="learned"/><text x="288" y="91" class="heading" text-anchor="start">[structured understanding]</text><text x="288" y="119" class="small" text-anchor="start"><tspan x="288" dy="0">[A source]</tspan><tspan x="288" dy="20">[B bridge]</tspan><tspan x="288" dy="20">[C target]</tspan><tspan x="288" dy="20">[D return]</tspan></text><path d="M478,125 L522,125" class="arrow" marker-end="url(#arrow)"/><rect x="526" y="91" width="82" height="66" rx="0" class="artifact"/><text x="567" y="116" class="small" text-anchor="middle">[gate]</text><text x="567" y="141" class="small" text-anchor="middle">[pass]</text><path d="M608,109 L650,109" class="arrow" marker-end="url(#arrow)"/><rect x="654" y="72" width="177" height="73" rx="0" class="deterministic"/><text x="742" y="102" class="small" text-anchor="middle">[taken compiler]</text><rect x="654" y="160" width="177" height="55" rx="0" class="bypassed"/><text x="742" y="193" class="small" text-anchor="middle">[conditional planner]</text><path d="M831,109 L864,109" class="arrow" marker-end="url(#arrow)"/><rect x="868" y="62" width="158" height="144" rx="0" class="artifact"/><text x="947" y="92" class="heading" text-anchor="middle">[typed DAG]</text><text x="884" y="125" class="mono" text-anchor="start"><tspan x="884" dy="0">A → B → C</tspan><tspan x="884" dy="24">      ↓</tspan><tspan x="884" dy="24">   return</tspan></text><line x1="263" y1="235" x2="1027" y2="235" class="rule"/><text x="266" y="270" class="panel" text-anchor="start">(b) Grounded bridge execution → release</text><rect x="273" y="294" width="172" height="194" rx="0" class="artifact"/><rect x="477" y="294" width="142" height="194" rx="0" class="artifact"/><rect x="651" y="294" width="172" height="194" rx="0" class="artifact"/><rect x="855" y="294" width="171" height="194" rx="0" class="check"/><text x="359" y="326" class="heading" text-anchor="middle">[source records]</text><text x="548" y="326" class="heading" text-anchor="middle">[bridge set]</text><text x="737" y="326" class="heading" text-anchor="middle">[bound records]</text><text x="941" y="326" class="heading" text-anchor="middle">[verified result]</text><text x="290" y="359" class="small" text-anchor="start"><tspan x="290" dy="0">[constraint]</tspan><tspan x="290" dy="32">[mini rows]</tspan><tspan x="290" dy="32">[N₀ records]</tspan></text><text x="493" y="359" class="small" text-anchor="start"><tspan x="493" dy="0">[emit field]</tspan><tspan x="493" dy="32">[values]</tspan><tspan x="493" dy="32">[N₁ values]</tspan></text><text x="667" y="359" class="small" text-anchor="start"><tspan x="667" dy="0">[IN binding]</tspan><tspan x="667" dy="32">[mini rows]</tspan><tspan x="667" dy="32">[N₂ records]</tspan></text><text x="871" y="359" class="small" text-anchor="start"><tspan x="871" dy="0">[return]</tspan><tspan x="871" dy="32">[checks]</tspan><tspan x="871" dy="32">[caveat]</tspan></text><path d="M445,390 L477,390" class="arrow" marker-end="url(#arrow)"/><path d="M619,390 L651,390" class="arrow" marker-end="url(#arrow)"/><path d="M823,390 L855,390" class="arrow" marker-end="url(#arrow)"/></svg>